<?xml version="1.0" standalone="no"?>
<!DOCTYPE svg PUBLIC "-//W3C//DTD SVG 20010904//EN"
 "http://www.w3.org/TR/2001/REC-SVG-20010904/DTD/svg10.dtd">
<svg version="1.0" xmlns="http://www.w3.org/2000/svg"
 width="752.000000pt" height="752.000000pt" viewBox="0 0 752.000000 752.000000"
 preserveAspectRatio="xMidYMid meet">
<metadata>
Created by potrace 1.11, written by Peter Selinger 2001-2013
</metadata>
<g transform="translate(0.000000,752.000000) scale(0.100000,-0.100000)"
fill="#000000" stroke="none">
<path d="M445 7109 c-138 -32 -250 -104 -332 -214 -40 -53 -59 -86 -69 -120
-2 -5 -11 -30 -21 -55 -17 -43 -18 -178 -20 -2950 l-2 -2905 26 -75 c14 -41
34 -87 44 -102 11 -14 19 -30 19 -35 0 -24 187 -193 213 -193 3 0 21 -7 41
-15 20 -8 38 -15 41 -16 3 0 23 -6 46 -14 36 -13 478 -15 3328 -15 2443 0
3296 3 3321 12 38 12 57 17 65 18 10 0 110 53 139 74 72 50 181 186 193 241 1
5 10 30 20 55 17 43 18 178 20 2950 l2 2905 -23 66 c-67 192 -192 315 -383
379 -57 19 -123 19 -3343 19 -1975 -1 -3301 -5 -3325 -10z m195 -151 c84 5
139 4 148 -2 6 -3 13 -2 17 3 3 6 16 7 28 3 12 -4 36 -6 52 -5 17 1 68 3 115
2 104 0 135 0 204 2 30 1 59 -1 64 -5 6 -3 13 -2 17 3 3 6 16 7 28 3 12 -4 36
-6 52 -5 17 1 68 3 115 2 104 0 135 0 204 2 30 1 59 -1 64 -5 6 -3 13 -2 17 3
3 6 16 7 28 3 12 -4 36 -6 52 -5 17 2 54 3 83 3 28 0 59 0 67 0 8 0 26 0 40 0
14 0 32 0 40 0 8 0 26 0 40 0 14 0 32 0 40 0 8 0 26 0 40 0 14 0 32 0 40 0 8
0 26 0 40 0 14 0 32 0 40 0 8 0 26 0 40 0 14 0 32 0 40 0 8 0 26 0 40 0 14 0
32 0 40 0 8 0 26 0 40 -1 54 0 77 0 129 2 30 1 59 -1 64 -5 6 -3 13 -2 17 3 3
6 16 7 28 3 12 -4 36 -6 52 -5 17 1 68 3 115 2 104 0 135 0 204 2 30 1 59 -1
64 -5 6 -3 13 -2 17 3 3 6 16 7 28 3 12 -4 36 -6 52 -5 17 1 68 3 115 2 104 0
135 0 204 2 30 1 59 -1 64 -5 6 -3 13 -2 17 3 3 6 16 7 28 3 12 -4 36 -6 52
-5 17 2 54 3 83 3 28 0 59 0 67 0 8 0 26 0 40 0 14 0 32 0 40 0 8 0 26 0 40 0
14 0 32 0 40 0 8 0 26 0 40 0 14 0 32 0 40 0 8 0 26 0 40 0 14 0 32 0 40 0 8
0 26 0 40 0 14 0 32 0 40 0 8 0 26 0 40 0 14 0 32 0 40 0 8 0 26 0 40 -1 54 0
77 0 129 2 30 1 59 -1 64 -5 6 -3 13 -2 17 3 3 6 16 7 28 3 12 -4 36 -6 52 -5
17 1 68 3 115 2 104 0 135 0 204 2 30 1 59 -1 64 -5 6 -3 13 -2 17 3 3 6 16 7
28 3 12 -4 36 -6 52 -5 17 1 68 3 115 2 104 0 135 0 204 2 30 1 59 -1 64 -5 6
-3 13 -2 17 3 3 6 16 7 28 3 12 -4 36 -6 52 -5 17 2 54 3 83 3 28 0 59 0 67 0
8 0 26 0 40 0 14 0 32 0 40 0 8 0 26 0 40 0 14 0 32 0 40 0 8 0 26 0 40 0 14
0 32 0 40 0 8 0 26 0 40 0 14 0 32 0 40 0 8 0 26 0 40 0 14 0 32 0 40 0 8 0
26 0 40 0 14 0 32 0 40 0 8 0 26 0 40 -1 54 0 77 0 129 2 30 1 59 -1 64 -5 6
-3 13 -2 17 3 3 6 16 7 28 3 12 -4 36 -6 52 -5 17 1 68 3 115 2 108 0 145 0
173 2 33 2 117 -10 157 -23 76 -24 153 -86 204 -162 44 -67 59 -116 62 -204 2
-40 6 -77 9 -82 3 -6 2 -10 -4 -10 -6 0 -6 -11 -1 -30 5 -17 5 -30 0 -30 -5 0
-5 -13 0 -30 5 -17 5 -30 0 -30 -5 0 -5 -13 0 -30 5 -17 5 -30 0 -30 -5 0 -5
-13 0 -30 5 -17 5 -30 0 -30 -5 0 -5 -13 0 -30 5 -17 5 -30 0 -30 -5 0 -5 -13
0 -30 5 -17 5 -30 0 -30 -5 0 -5 -13 0 -30 5 -17 5 -30 0 -30 -5 0 -5 -13 0
-30 5 -19 5 -30 -1 -30 -6 0 -7 -5 -4 -10 8 -14 11 -108 3 -116 -4 -3 -2 -19
2 -35 5 -16 5 -29 1 -29 -5 0 -5 -18 -1 -40 4 -22 5 -40 1 -40 -3 0 -6 -16 -6
-35 0 -19 4 -35 8 -35 5 0 5 -5 2 -10 -9 -14 -10 -108 -2 -116 3 -4 2 -14 -3
-23 -5 -10 -5 -23 0 -31 4 -7 4 -24 0 -36 -6 -14 -5 -26 0 -29 6 -3 6 -15 0
-30 -5 -14 -5 -27 0 -30 5 -3 5 -18 0 -35 -5 -17 -5 -30 0 -30 5 0 5 -13 0
-30 -5 -17 -5 -30 0 -30 5 0 5 -13 0 -30 -5 -16 -6 -30 -2 -30 8 0 7 -68 -1
-76 -3 -3 -2 -17 3 -30 6 -14 6 -26 0 -29 -5 -3 -6 -15 -1 -27 4 -12 5 -38 1
-59 -4 -21 -4 -43 1 -50 4 -7 4 -20 -1 -29 -5 -9 -5 -22 0 -30 4 -7 4 -24 0
-36 -6 -14 -5 -26 0 -29 6 -3 6 -15 0 -30 -5 -14 -5 -27 0 -30 5 -3 5 -18 0
-35 -5 -17 -5 -30 0 -30 5 0 5 -13 0 -30 -5 -17 -5 -30 0 -30 5 0 5 -13 0 -30
-5 -16 -6 -30 -2 -30 8 0 7 -68 -1 -76 -3 -3 -2 -17 3 -30 6 -14 6 -26 -1 -29
-5 -4 -7 -11 -4 -16 9 -14 12 -88 4 -101 -4 -6 -3 -24 1 -39 5 -16 5 -29 1
-29 -5 0 -5 -18 -1 -40 4 -22 5 -40 1 -40 -3 0 -6 -16 -6 -35 0 -19 3 -35 7
-35 4 0 5 -6 2 -13 -9 -24 -10 -71 -3 -99 4 -16 4 -28 -1 -28 -5 0 -5 -13 0
-30 5 -17 5 -30 0 -30 -5 0 -5 -13 0 -30 5 -17 5 -30 0 -30 -5 0 -5 -13 0 -30
5 -17 5 -30 0 -30 -5 0 -5 -13 0 -30 5 -17 5 -30 0 -30 -5 0 -5 -13 0 -30 5
-17 5 -30 0 -30 -5 0 -5 -13 0 -30 5 -17 5 -30 0 -30 -5 0 -5 -13 0 -30 5 -17
5 -30 0 -30 -5 0 -5 -13 0 -30 5 -19 5 -30 -1 -30 -6 0 -7 -5 -4 -10 8 -14 11
-108 3 -116 -4 -3 -2 -19 2 -35 5 -16 5 -29 1 -29 -5 0 -5 -18 -1 -40 4 -22 5
-40 1 -40 -3 0 -6 -16 -6 -35 0 -19 4 -35 8 -35 5 0 5 -5 2 -10 -9 -14 -10
-108 -2 -116 3 -4 2 -14 -3 -23 -5 -10 -5 -23 0 -31 4 -7 4 -24 0 -36 -6 -14
-5 -26 0 -29 6 -3 6 -15 0 -30 -5 -14 -5 -27 0 -30 5 -3 5 -18 0 -35 -5 -17
-5 -30 0 -30 5 0 5 -13 0 -30 -5 -17 -5 -30 0 -30 5 0 5 -13 0 -30 -5 -16 -6
-30 -2 -30 8 0 7 -68 -1 -76 -3 -3 -2 -17 3 -30 6 -14 6 -26 0 -29 -6 -3 -6
-15 0 -29 5 -13 7 -26 4 -29 -7 -7 -10 -107 -2 -107 4 0 3 -13 -2 -30 -5 -17
-5 -30 0 -30 5 0 5 -13 0 -30 -5 -17 -5 -30 0 -30 5 0 5 -13 0 -30 -5 -17 -5
-30 0 -30 5 0 5 -13 0 -30 -5 -17 -5 -30 0 -30 5 0 5 -13 0 -29 -4 -15 -4 -34
0 -42 5 -7 5 -20 0 -29 -5 -9 -5 -22 0 -30 5 -8 5 -21 0 -30 -5 -9 -5 -22 0
-30 5 -8 5 -21 0 -30 -5 -9 -5 -22 0 -30 4 -7 6 -18 4 -24 -7 -20 -9 -126 -2
-126 4 0 3 -13 -2 -30 -5 -17 -5 -30 0 -30 5 0 5 -13 0 -30 -5 -17 -5 -30 0
-30 5 0 5 -13 0 -30 -5 -17 -5 -30 0 -30 5 0 5 -13 0 -30 -5 -17 -5 -30 0 -30
5 0 5 -13 0 -29 -4 -15 -4 -34 0 -42 5 -7 5 -20 0 -29 -5 -9 -5 -22 0 -30 5
-8 5 -21 0 -30 -5 -9 -5 -22 0 -30 5 -8 5 -21 0 -30 -5 -9 -5 -22 -1 -28 4 -7
5 -30 1 -50 -3 -20 -3 -54 1 -75 3 -20 3 -37 -2 -37 -4 0 -4 -13 1 -30 5 -16
6 -30 2 -30 -4 0 -8 -22 -8 -49 -1 -26 -9 -64 -17 -82 -8 -19 -18 -41 -21 -49
-29 -73 -142 -172 -226 -198 -42 -14 -99 -25 -120 -23 -8 0 -44 0 -80 0 -36 0
-72 0 -80 0 -8 0 -44 0 -80 0 -36 0 -72 0 -80 0 -8 0 -44 0 -80 0 -36 0 -71 0
-77 0 -85 2 -105 2 -110 -3 -3 -2 -16 -1 -29 4 -14 6 -26 6 -29 -1 -4 -5 -11
-7 -16 -3 -10 6 -85 7 -144 1 -16 -1 -40 1 -52 5 -12 4 -25 3 -28 -3 -4 -5
-11 -6 -17 -3 -10 6 -80 7 -143 1 -16 -1 -40 1 -52 5 -12 4 -25 3 -28 -2 -3
-5 -16 -6 -28 -1 -12 4 -35 4 -52 1 -16 -3 -40 -3 -52 1 -13 5 -25 4 -28 -2
-4 -5 -11 -7 -16 -3 -10 6 -85 7 -144 1 -16 -1 -40 1 -52 5 -12 4 -25 3 -28
-3 -4 -5 -11 -6 -17 -3 -10 6 -80 7 -143 1 -16 -1 -40 1 -52 5 -12 4 -25 3
-28 -2 -3 -5 -16 -6 -28 -1 -12 4 -35 4 -52 1 -16 -3 -40 -3 -52 1 -13 5 -25
4 -28 -2 -4 -5 -11 -7 -16 -3 -10 6 -85 7 -144 1 -16 -1 -40 1 -52 5 -12 4
-25 3 -28 -3 -4 -5 -11 -6 -17 -3 -10 6 -80 7 -143 1 -16 -1 -40 1 -52 5 -12
4 -25 3 -28 -2 -3 -5 -16 -6 -28 -1 -12 4 -35 4 -52 1 -16 -3 -40 -3 -52 1
-13 5 -25 4 -28 -2 -4 -5 -11 -7 -16 -3 -10 6 -85 7 -144 1 -16 -1 -40 1 -52
5 -12 4 -25 3 -28 -3 -4 -5 -11 -6 -17 -3 -10 6 -80 7 -143 1 -16 -1 -40 1
-52 5 -12 4 -25 3 -28 -2 -3 -6 -15 -6 -29 0 -13 5 -26 7 -28 4 -4 -3 -82 -5
-148 -3 -8 0 -44 0 -80 0 -36 0 -72 0 -80 0 -8 0 -44 0 -80 0 -36 0 -72 0 -80
0 -8 0 -44 0 -80 0 -36 0 -87 -1 -115 -1 -27 0 -63 -1 -80 -3 -16 -1 -40 1
-52 5 -12 4 -25 3 -28 -3 -4 -5 -11 -6 -17 -3 -10 6 -80 7 -143 1 -16 -1 -40
1 -52 5 -12 4 -25 3 -28 -3 -4 -5 -11 -7 -16 -3 -10 6 -85 7 -144 1 -16 -1
-40 1 -52 5 -12 4 -25 3 -28 -3 -4 -5 -11 -6 -17 -3 -10 6 -80 7 -143 1 -16
-1 -40 1 -52 5 -12 4 -25 3 -28 -3 -4 -5 -11 -7 -16 -3 -10 6 -85 7 -144 1
-16 -1 -40 1 -52 5 -12 4 -25 3 -28 -3 -4 -5 -11 -6 -17 -3 -5 4 -34 6 -64 5
-30 0 -80 -1 -111 -1 -32 0 -87 -1 -123 -1 -36 0 -72 0 -80 0 -8 0 -44 0 -80
0 -36 0 -72 0 -80 0 -8 0 -44 0 -80 0 -36 0 -71 0 -77 0 -85 2 -105 2 -110 -3
-3 -2 -16 -1 -29 4 -14 6 -26 6 -29 -1 -4 -5 -11 -7 -16 -3 -10 6 -85 7 -144
1 -16 -1 -40 1 -52 5 -12 4 -25 3 -28 -3 -4 -5 -11 -6 -17 -3 -10 6 -80 7
-143 1 -16 -1 -40 1 -52 5 -12 4 -25 3 -28 -2 -3 -6 -15 -6 -29 0 -13 5 -26 7
-29 4 -2 -2 -19 -5 -38 -5 -172 0 -255 28 -348 122 -83 82 -114 153 -117 271
-2 45 -5 87 -8 94 -3 8 -1 14 4 14 5 0 5 12 0 29 -4 15 -4 34 0 42 5 7 5 20 0
29 -5 9 -5 22 0 30 5 8 6 18 3 23 -7 12 -7 106 0 113 3 3 1 19 -3 35 -5 16 -6
29 -2 29 4 0 6 21 5 47 -2 63 -3 104 -3 126 0 9 0 24 0 32 0 8 0 22 0 30 0 8
0 22 0 30 0 8 0 22 0 30 0 8 0 38 -1 65 -1 28 1 53 4 56 3 3 1 19 -3 35 -5 16
-6 29 -2 29 8 0 6 114 -2 135 -3 8 -1 17 4 20 5 3 6 15 0 29 -4 12 -4 29 0 36
5 8 5 21 0 30 -5 9 -5 22 0 30 5 8 6 18 3 23 -7 12 -7 106 0 113 3 3 1 19 -3
35 -5 16 -6 29 -2 29 4 0 6 21 5 47 -2 63 -3 104 -3 126 0 9 0 24 0 32 0 8 0
22 0 30 0 8 0 22 0 30 0 8 0 22 0 30 0 8 0 38 -1 65 -1 28 1 53 4 56 3 3 1 19
-3 35 -5 16 -6 29 -2 29 8 0 6 114 -2 135 -3 8 -1 17 4 20 5 3 6 15 0 29 -4
12 -4 29 0 36 5 8 5 21 0 30 -5 9 -5 22 0 30 5 8 6 18 3 23 -7 12 -7 106 0
113 3 3 1 19 -3 35 -5 16 -6 29 -2 29 4 0 6 21 5 47 -2 63 -3 104 -3 126 0 9
0 24 0 32 0 8 0 22 0 30 0 8 0 22 0 30 0 8 0 22 0 30 0 8 0 38 -1 65 -1 28 1
53 4 56 3 3 1 19 -3 35 -5 16 -6 29 -2 29 8 0 6 114 -2 135 -3 8 -1 17 4 20 5
3 6 15 0 29 -4 12 -4 29 0 36 5 8 5 21 0 30 -5 9 -5 22 0 30 5 8 6 18 3 23 -7
12 -7 106 0 113 3 3 1 19 -3 35 -5 16 -6 29 -2 29 4 0 6 21 5 47 -2 63 -3 104
-3 126 0 9 0 24 0 32 0 8 0 22 0 30 0 8 0 22 0 30 0 8 0 22 0 30 0 8 0 38 -1
65 -1 28 1 53 4 56 3 3 1 19 -3 35 -5 16 -6 29 -2 29 8 0 6 114 -2 135 -3 8
-1 17 4 20 5 3 6 15 0 29 -4 12 -4 29 0 36 5 8 5 21 0 30 -5 9 -5 22 0 30 5 8
6 18 3 23 -7 12 -7 106 0 113 3 3 1 19 -3 35 -5 16 -6 29 -2 29 4 0 6 21 5 47
-2 63 -3 104 -3 126 0 9 0 24 0 32 0 8 0 22 0 30 0 8 0 22 0 30 0 8 0 22 0 30
0 8 0 38 -1 65 -1 28 1 53 4 56 3 3 1 19 -3 35 -5 16 -6 29 -2 29 8 0 6 114
-2 135 -3 8 -1 17 4 20 5 3 6 15 0 29 -4 12 -4 29 0 36 5 8 5 21 0 30 -5 9 -5
22 0 30 5 8 6 18 3 23 -7 12 -7 106 0 113 3 3 1 19 -3 35 -5 16 -6 29 -2 29 4
0 6 21 5 47 -2 63 -3 104 -3 126 0 9 0 24 0 32 0 8 0 22 0 30 0 8 0 22 0 30 0
8 0 23 0 33 -1 157 19 230 86 316 69 88 168 143 268 152 27 2 52 6 54 8 2 3
11 2 20 -2 9 -3 32 -5 52 -4z"/>
<path d="M1899 5760 c-1 -3 -3 -876 -3 -1941 l-2 -1937 707 0 c389 0 712 -3
718 -7 6 -3 11 -3 11 2 0 9 116 10 126 1 3 -4 11 -5 18 -2 22 9 88 11 132 4
24 -4 44 -4 44 -1 0 5 118 6 130 1 3 -1 10 -1 15 0 6 1 107 2 226 2 l216 0 0
289 c0 159 -3 289 -6 290 -3 0 -370 2 -816 2 l-810 2 -1 570 -1 570 729 -1
c506 0 728 3 729 10 1 6 2 136 3 288 l1 278 -731 0 -731 0 0 500 c0 448 2 500
16 501 9 0 357 0 774 1 l757 0 1 86 c0 90 0 360 -1 447 l0 50 -1125 0 c-619 0
-1126 -2 -1126 -5z"/>
<path d="M4864 5761 c-2 -2 -4 -876 -4 -1942 l0 -1937 354 0 355 0 -1 1939 c0
1466 -3 1939 -11 1940 -37 4 -689 3 -693 0z"/>
</g>
</svg>
